<svg width="20" height="20" viewBox="0 0 20 20" fill="none" xmlns="http://www.w3.org/2000/svg">
<path d="M13.4166 11.0833L12.2083 9.87492C12.3333 9.22214 12.1458 8.61103 11.6458 8.04159C11.1458 7.47214 10.5 7.24992 9.70831 7.37492L8.49998 6.16659C8.73609 6.05547 8.97567 5.97214 9.21873 5.91659C9.46178 5.86103 9.7222 5.83325 9.99998 5.83325C11.0416 5.83325 11.9271 6.19784 12.6562 6.927C13.3854 7.65617 13.75 8.54159 13.75 9.58325C13.75 9.86103 13.7222 10.1214 13.6666 10.3645C13.6111 10.6076 13.5278 10.8471 13.4166 11.0833ZM16.0833 13.7083L14.875 12.5416C15.4028 12.1388 15.8715 11.6978 16.2812 11.2187C16.691 10.7395 17.0416 10.1944 17.3333 9.58325C16.6389 8.18047 15.6423 7.06589 14.3437 6.2395C13.0451 5.41311 11.5972 4.99992 9.99998 4.99992C9.5972 4.99992 9.20137 5.0277 8.81248 5.08325C8.42359 5.13881 8.04165 5.22214 7.66665 5.33325L6.37498 4.04159C6.94442 3.80547 7.52776 3.62839 8.12498 3.51034C8.7222 3.39228 9.3472 3.33325 9.99998 3.33325C12.0972 3.33325 13.9653 3.91311 15.6041 5.07284C17.243 6.23256 18.4305 7.73603 19.1666 9.58325C18.8472 10.4027 18.4271 11.1631 17.9062 11.8645C17.3854 12.5659 16.7778 13.1805 16.0833 13.7083ZM16.5 18.8333L13 15.3749C12.5139 15.5277 12.0243 15.6423 11.5312 15.7187C11.0382 15.7951 10.5278 15.8333 9.99998 15.8333C7.90276 15.8333 6.0347 15.2534 4.39581 14.0937C2.75692 12.9339 1.56942 11.4305 0.833313 9.58325C1.12498 8.84714 1.49304 8.16311 1.93748 7.53117C2.38192 6.89922 2.88887 6.33325 3.45831 5.83325L1.16665 3.49992L2.33331 2.33325L17.6666 17.6666L16.5 18.8333ZM4.62498 6.99992C4.2222 7.36103 3.85415 7.75686 3.52081 8.18742C3.18748 8.61797 2.90276 9.08325 2.66665 9.58325C3.36109 10.986 4.35762 12.1006 5.65623 12.927C6.95484 13.7534 8.40276 14.1666 9.99998 14.1666C10.2778 14.1666 10.5486 14.1492 10.8125 14.1145C11.0764 14.0798 11.3472 14.0416 11.625 13.9999L10.875 13.2083C10.7222 13.2499 10.5764 13.2812 10.4375 13.302C10.2986 13.3228 10.1528 13.3333 9.99998 13.3333C8.95831 13.3333 8.0729 12.9687 7.34373 12.2395C6.61456 11.5103 6.24998 10.6249 6.24998 9.58325C6.24998 9.43047 6.2604 9.28464 6.28123 9.14575C6.30206 9.00686 6.33331 8.86103 6.37498 8.70825L4.62498 6.99992Z" fill="#141A1F"/>
</svg>
