<svg width="24" height="25" viewBox="0 0 24 25" fill="none" xmlns="http://www.w3.org/2000/svg">
<path d="M11.7 18.5C10.1 18.4167 8.75 17.8 7.65 16.65C6.55 15.5 6 14.1167 6 12.5C6 10.8333 6.58333 9.41667 7.75 8.25C8.91667 7.08333 10.3333 6.5 12 6.5C13.6167 6.5 15 7.05 16.15 8.15C17.3 9.25 17.9167 10.6 18 12.2L15.9 11.575C15.6833 10.675 15.2167 9.9375 14.5 9.3625C13.7833 8.7875 12.95 8.5 12 8.5C10.9 8.5 9.95833 8.89167 9.175 9.675C8.39167 10.4583 8 11.4 8 12.5C8 13.45 8.2875 14.2833 8.8625 15C9.4375 15.7167 10.175 16.1833 11.075 16.4L11.7 18.5ZM12.9 22.45C12.75 22.4833 12.6 22.5 12.45 22.5H12C10.6167 22.5 9.31667 22.2375 8.1 21.7125C6.88333 21.1875 5.825 20.475 4.925 19.575C4.025 18.675 3.3125 17.6167 2.7875 16.4C2.2625 15.1833 2 13.8833 2 12.5C2 11.1167 2.2625 9.81667 2.7875 8.6C3.3125 7.38333 4.025 6.325 4.925 5.425C5.825 4.525 6.88333 3.8125 8.1 3.2875C9.31667 2.7625 10.6167 2.5 12 2.5C13.3833 2.5 14.6833 2.7625 15.9 3.2875C17.1167 3.8125 18.175 4.525 19.075 5.425C19.975 6.325 20.6875 7.38333 21.2125 8.6C21.7375 9.81667 22 11.1167 22 12.5V12.95C22 13.1 21.9833 13.25 21.95 13.4L20 12.8V12.5C20 10.2667 19.225 8.375 17.675 6.825C16.125 5.275 14.2333 4.5 12 4.5C9.76667 4.5 7.875 5.275 6.325 6.825C4.775 8.375 4 10.2667 4 12.5C4 14.7333 4.775 16.625 6.325 18.175C7.875 19.725 9.76667 20.5 12 20.5H12.3L12.9 22.45ZM20.525 23L16.25 18.725L15 22.5L12 12.5L22 15.5L18.225 16.75L22.5 21.025L20.525 23Z" fill="#4A69E8"/>
</svg>
